<?xml version="1.0" encoding="utf-8"?>
<!-- Generator: Adobe Illustrator 19.2.1, SVG Export Plug-In . SVG Version: 6.00 Build 0)  -->
<svg version="1.1" id="Layer_1" xmlns="http://www.w3.org/2000/svg" xmlns:xlink="http://www.w3.org/1999/xlink" x="0px" y="0px"
	 viewBox="0 0 190 42" style="enable-background:new 0 0 190 42;" xml:space="preserve">
<style type="text/css">
	.st0{clip-path:url(#SVGID_2_);fill:#2B8359;}
	.st1{clip-path:url(#SVGID_2_);fill:#9F9A95;}
	.st2{clip-path:url(#SVGID_4_);fill:url(#SVGID_5_);}
	.st3{clip-path:url(#SVGID_7_);fill:url(#SVGID_8_);}
	.st4{clip-path:url(#SVGID_10_);fill:url(#SVGID_11_);}
	.st5{clip-path:url(#SVGID_13_);fill:url(#SVGID_14_);}
	.st6{clip-path:url(#SVGID_16_);fill:url(#SVGID_17_);}
	.st7{clip-path:url(#SVGID_19_);fill:#655F61;}
</style>
<g>
	<defs>
		<rect id="SVGID_1_" x="2" y="0.5" width="187.6" height="40.5"/>
	</defs>
	<clipPath id="SVGID_2_">
		<use xlink:href="#SVGID_1_"  style="overflow:visible;"/>
	</clipPath>
	<path class="st0" d="M152.5,17.3c0,7.6-6.2,13.8-13.8,13.8l-6.8,0c-0.5,0-0.8-0.3-0.8-0.8l0-26c0-0.5,0.3-0.8,0.8-0.8l6.8,0
		C146.3,3.5,152.5,9.7,152.5,17.3 M148.8,17.3c0-5.5-4.5-10.1-10-10.1l-3.8,0l0,20.1l3.8,0C144.2,27.3,148.8,22.8,148.8,17.3"/>
	<path class="st0" d="M172.4,21.5c0,5.3-4.3,9.6-9.6,9.6c-5.3,0-9.6-4.3-9.6-9.6c0-5.3,4.3-9.6,9.6-9.6
		C168.1,11.8,172.4,16.2,172.4,21.5 M156.9,21.5c0,3.2,2.6,5.9,5.9,5.9c3.2,0,5.9-2.6,5.9-5.9c0-3.2-2.6-5.9-5.9-5.9
		C159.6,15.6,156.9,18.2,156.9,21.5"/>
	<path class="st0" d="M183,31.1c-5.3,0-9.6-4.3-9.6-9.6c0-5.3,4.3-9.6,9.6-9.6c2.4,0,4.6,0.9,6.3,2.4c0.4,0.3,0.4,0.7,0.1,1.2
		l-1.3,1.5c-0.3,0.4-0.7,0.4-1.2,0.1c-1.3-1-2.7-1.5-4-1.5c-3.2,0-5.9,2.6-5.9,5.9c0,3.2,2.6,5.9,5.9,5.9c1.3,0,2.7-0.4,4-1.5
		c0.4-0.4,0.8-0.3,1.2,0.1l1.2,1.5c0.3,0.4,0.3,0.8-0.1,1.2C187.6,30.1,185.5,31.1,183,31.1"/>
	<path class="st1" d="M54,31.1h-0.8c-0.3,0-0.6-0.2-0.7-0.5L44.9,12c-0.2-0.4,0-0.7,0.5-0.7h1.7c0.3,0,0.6,0.2,0.7,0.5l5.8,14.9
		l5.9-14.9c0.1-0.3,0.4-0.5,0.7-0.5h1.7c0.4,0,0.6,0.2,0.5,0.7l-7.6,18.6C54.6,30.9,54.4,31.1,54,31.1"/>
	<path class="st1" d="M66,31.1h-1.4c-0.4,0-0.7-0.3-0.7-0.7V12c0-0.4,0.3-0.7,0.7-0.7H66c0.4,0,0.7,0.3,0.7,0.7v18.4
		C66.7,30.8,66.4,31.1,66,31.1"/>
	<path class="st1" d="M85.5,20.9c0-4.1-3.4-7.4-7.4-7.4c-4.1,0-7.4,3.3-7.4,7.4s3.3,7.4,7.4,7.4C82.1,28.3,85.5,25,85.5,20.9
		 M88.2,3.8v26.3c0,0.4-0.3,0.7-0.7,0.7h-1c-0.4,0-0.7-0.3-0.7-0.7v-2.5c-1.9,2.1-4.7,3.6-7.8,3.6c-5.7,0-10.2-4.6-10.2-10.2
		c0-5.7,4.6-10.2,10.2-10.2c2.9,0,5.6,1.2,7.4,3.2V3.8c0-0.4,0.3-0.7,0.7-0.7h1.3C88,3.1,88.2,3.4,88.2,3.8"/>
	<path class="st1" d="M106,19.5c-0.6-3.5-3.5-6.1-7-6.1c-3.2,0-6.4,2.3-7,6.1H106z M108.3,21.8H92c0.6,3.9,3.6,6.5,7.2,6.5
		c2.5,0,4.6-1.2,6-2.6c0.3-0.3,0.7-0.3,1,0.1l0.8,1c0.3,0.3,0.3,0.7,0,1c-2.3,2.3-5.1,3.3-7.8,3.3c-6,0-10.2-5-10.2-10.6
		c0-5.7,4.4-9.9,9.9-9.9c5.5,0,9.7,4.2,10,10.4C109,21.6,108.7,21.8,108.3,21.8"/>
	<path class="st1" d="M112.3,20.5c0,4.1,3.3,7.4,7.4,7.4c4.1,0,7.4-3.3,7.4-7.4s-3.3-7.4-7.4-7.4C115.6,13.1,112.3,16.4,112.3,20.5
		 M129.9,20.5c0,5.6-4.6,10.2-10.2,10.2c-5.6,0-10.2-4.6-10.2-10.2s4.6-10.2,10.2-10.2C125.3,10.3,129.9,14.9,129.9,20.5"/>
</g>
<g>
	<defs>
		<path id="SVGID_3_" d="M7.8,10.6c-3.2,0-5.8,2.6-5.8,5.8V25c0,3.2,2.6,5.8,5.8,5.8H16V27H7.8c-1.1,0-2-0.9-2-2v-8.5
			c0-1.1,0.9-2,2-2H16v-3.8H7.8z"/>
	</defs>
	<clipPath id="SVGID_4_">
		<use xlink:href="#SVGID_3_"  style="overflow:visible;"/>
	</clipPath>
	
		<linearGradient id="SVGID_5_" gradientUnits="userSpaceOnUse" x1="1.0717" y1="42.8567" x2="2.0716" y2="42.8567" gradientTransform="matrix(13.9565 0 0 13.9565 -12.9565 -577.4019)">
		<stop  offset="0" style="stop-color:#4BB592"/>
		<stop  offset="0.2109" style="stop-color:#3FA27C"/>
		<stop  offset="0.4692" style="stop-color:#349169"/>
		<stop  offset="0.7312" style="stop-color:#2D865D"/>
		<stop  offset="1" style="stop-color:#2B8359"/>
	</linearGradient>
	<rect x="2" y="10.6" class="st2" width="14" height="20.2"/>
</g>
<g>
	<defs>
		<path id="SVGID_6_" d="M28.6,27v8.1c0,1.1-0.9,2-2,2H18c-1.1,0-2-0.9-2-2V27h-3.8v8.1c0,3.2,2.6,5.8,5.8,5.8h8.5
			c3.2,0,5.8-2.6,5.8-5.8V27H28.6z"/>
	</defs>
	<clipPath id="SVGID_7_">
		<use xlink:href="#SVGID_6_"  style="overflow:visible;"/>
	</clipPath>
	
		<linearGradient id="SVGID_8_" gradientUnits="userSpaceOnUse" x1="1.0494" y1="42.9012" x2="2.0495" y2="42.9012" gradientTransform="matrix(20.2306 0 0 20.2306 -9.0729 -833.8947)">
		<stop  offset="0" style="stop-color:#4BB592"/>
		<stop  offset="0.2109" style="stop-color:#3FA27C"/>
		<stop  offset="0.4692" style="stop-color:#349169"/>
		<stop  offset="0.7312" style="stop-color:#2D865D"/>
		<stop  offset="1" style="stop-color:#2B8359"/>
	</linearGradient>
	<rect x="12.2" y="27" class="st3" width="20.2" height="14"/>
</g>
<g>
	<defs>
		<path id="SVGID_9_" d="M28.6,10.6v3.8h8.1c1.1,0,2,0.9,2,2V25c0,1.1-0.9,2-2,2h-8.1v3.8h8.1c3.2,0,5.8-2.6,5.8-5.8v-8.5
			c0-3.2-2.6-5.8-5.8-5.8H28.6z"/>
	</defs>
	<clipPath id="SVGID_10_">
		<use xlink:href="#SVGID_9_"  style="overflow:visible;"/>
	</clipPath>
	
		<linearGradient id="SVGID_11_" gradientUnits="userSpaceOnUse" x1="1.0717" y1="42.8567" x2="2.0717" y2="42.8567" gradientTransform="matrix(13.957 0 0 13.957 13.6313 -577.425)">
		<stop  offset="0" style="stop-color:#4BB592"/>
		<stop  offset="0.2109" style="stop-color:#3FA27C"/>
		<stop  offset="0.4692" style="stop-color:#349169"/>
		<stop  offset="0.7312" style="stop-color:#2D865D"/>
		<stop  offset="1" style="stop-color:#2B8359"/>
	</linearGradient>
	<rect x="28.6" y="10.6" class="st4" width="14" height="20.2"/>
</g>
<g>
	<defs>
		<path id="SVGID_12_" d="M17.9,0.5c-3.2,0.1-5.7,2.7-5.7,5.8v8.1H16V6.3c0-1.1,0.9-2,2-2h8.5c1.1,0,2,0.9,2,2v8.1h3.8V6.3
			c0-3.2-2.6-5.8-5.7-5.8H17.9z"/>
	</defs>
	<clipPath id="SVGID_13_">
		<use xlink:href="#SVGID_12_"  style="overflow:visible;"/>
	</clipPath>
	
		<linearGradient id="SVGID_14_" gradientUnits="userSpaceOnUse" x1="1.0494" y1="42.9011" x2="2.0495" y2="42.9011" gradientTransform="matrix(20.2306 0 0 20.2306 -9.0729 -860.4836)">
		<stop  offset="0" style="stop-color:#4BB592"/>
		<stop  offset="0.2109" style="stop-color:#3FA27C"/>
		<stop  offset="0.4692" style="stop-color:#349169"/>
		<stop  offset="0.7312" style="stop-color:#2D865D"/>
		<stop  offset="1" style="stop-color:#2B8359"/>
	</linearGradient>
	<rect x="12.2" y="0.5" class="st5" width="20.2" height="14"/>
</g>
<g>
	<defs>
		<path id="SVGID_15_" d="M7.8,10.6c-3.2,0-5.8,2.6-5.8,5.8v4.3h3.8v-4.3c0-1.1,0.9-2,2-2H16v-3.8H7.8z"/>
	</defs>
	<clipPath id="SVGID_16_">
		<use xlink:href="#SVGID_15_"  style="overflow:visible;"/>
	</clipPath>
	
		<linearGradient id="SVGID_17_" gradientUnits="userSpaceOnUse" x1="1.0717" y1="42.8567" x2="2.0716" y2="42.8567" gradientTransform="matrix(13.9565 0 0 13.9565 -12.9565 -582.4597)">
		<stop  offset="0" style="stop-color:#4BB592"/>
		<stop  offset="0.2109" style="stop-color:#3FA27C"/>
		<stop  offset="0.4692" style="stop-color:#349169"/>
		<stop  offset="0.7312" style="stop-color:#2D865D"/>
		<stop  offset="1" style="stop-color:#2B8359"/>
	</linearGradient>
	<rect x="2" y="10.6" class="st6" width="14" height="10.1"/>
</g>
<g>
	<defs>
		<rect id="SVGID_18_" x="2" y="0.5" width="187.6" height="40.5"/>
	</defs>
	<clipPath id="SVGID_19_">
		<use xlink:href="#SVGID_18_"  style="overflow:visible;"/>
	</clipPath>
	<polygon class="st7" points="27.5,20.7 19,15.2 19,26.3 	"/>
</g>
</svg>
