<svg width="48" height="40" viewBox="0 0 48 40" fill="none" xmlns="http://www.w3.org/2000/svg">
<path d="M43.9278 34.3564C40.5616 38.0638 35.4681 39.9431 28.791 39.9431L26.3917 39.9431L26.3917 33.0718L28.3207 32.6794C31.6077 32.0115 33.8941 30.6977 35.1178 28.7696C35.7562 27.7309 36.1183 26.5416 36.1686 25.3181L28.7909 25.3181C28.1546 25.3181 27.5444 25.0613 27.0944 24.6042C26.6445 24.1471 26.3917 23.5271 26.3917 22.8806L26.3917 5.81811C26.3917 3.12955 28.5438 0.943113 31.1902 0.943113L45.5857 0.943112C46.222 0.943112 46.8322 1.19992 47.2822 1.65704C47.7321 2.11416 47.9849 2.73415 47.9849 3.38061L47.9849 15.5681L47.9777 22.6832C47.9993 22.9537 48.4552 29.3644 43.9278 34.3564ZM4.79849 0.943115L19.194 0.943114C19.8303 0.943114 20.4405 1.19992 20.8905 1.65704C21.3404 2.11416 21.5932 2.73415 21.5932 3.38061L21.5932 15.5681L21.586 22.6832C21.6076 22.9537 22.0635 29.3644 17.5361 34.3564C14.1699 38.0638 9.07635 39.9431 2.39925 39.9431L3.8147e-06 39.9431L3.21399e-06 33.0718L1.929 32.6794C5.21596 32.0115 7.50244 30.6977 8.72605 28.7696C9.36451 27.7309 9.72662 26.5416 9.77693 25.3181L2.39924 25.3181C1.76293 25.3181 1.15267 25.0613 0.702723 24.6042C0.252776 24.1471 2.37956e-06 23.5271 2.32305e-06 22.8806L8.31395e-07 5.81812C5.96353e-07 3.12955 2.15212 0.943115 4.79849 0.943115Z" fill="#2F80ED"/>
</svg>
