<svg width="48" height="39" viewBox="0 0 48 39" fill="none" xmlns="http://www.w3.org/2000/svg">
<path opacity="0.4" d="M43.9278 33.4133C40.5616 37.1207 35.4681 39 28.791 39L26.3917 39L26.3917 32.1287L28.3207 31.7363C31.6077 31.0684 33.8941 29.7546 35.1178 27.8265C35.7562 26.7878 36.1183 25.5985 36.1686 24.375L28.7909 24.375C28.1546 24.375 27.5444 24.1182 27.0944 23.6611C26.6445 23.204 26.3917 22.584 26.3917 21.9375L26.3917 4.875C26.3917 2.18643 28.5438 -2.11378e-06 31.1902 -2.34514e-06L45.5857 -3.60363e-06C46.222 -3.65926e-06 46.8322 0.256802 47.2822 0.713921C47.7321 1.17104 47.9849 1.79103 47.9849 2.4375L47.9849 14.625L47.9777 21.7401C47.9993 22.0106 48.4552 28.4212 43.9278 33.4133ZM4.79849 -3.79015e-08L19.194 -1.29639e-06C19.8303 -1.35202e-06 20.4405 0.256804 20.8905 0.713923C21.3404 1.17105 21.5932 1.79103 21.5932 2.4375L21.5932 14.625L21.586 21.7401C21.6076 22.0106 22.0635 28.4213 17.5361 33.4133C14.1699 37.1207 9.07635 39 2.39925 39L3.8147e-06 39L3.21399e-06 32.1287L1.929 31.7363C5.21596 31.0684 7.50244 29.7546 8.72605 27.8265C9.36451 26.7878 9.72662 25.5985 9.77693 24.375L2.39924 24.375C1.76293 24.375 1.15267 24.1182 0.702723 23.6611C0.252776 23.204 2.37956e-06 22.584 2.32305e-06 21.9375L8.31395e-07 4.875C5.96353e-07 2.18644 2.15212 1.93451e-07 4.79849 -3.79015e-08Z" fill="#2F80ED"/>
</svg>
