<svg width="32" height="32" viewBox="0 0 32 32" fill="none" xmlns="http://www.w3.org/2000/svg">
<path d="M16 10.793C13.1328 10.793 10.793 13.1328 10.793 16C10.793 18.8672 13.1328 21.207 16 21.207C18.8672 21.207 21.207 18.8672 21.207 16C21.207 13.1328 18.8672 10.793 16 10.793ZM31.6172 16C31.6172 13.8438 31.6367 11.707 31.5156 9.55469C31.3945 7.05469 30.8242 4.83594 28.9961 3.00781C27.1641 1.17578 24.9492 0.609377 22.4492 0.488283C20.293 0.36719 18.1562 0.386721 16.0039 0.386721C13.8477 0.386721 11.7109 0.36719 9.5586 0.488283C7.0586 0.609377 4.83985 1.17969 3.01172 3.00781C1.17969 4.83985 0.613283 7.05469 0.49219 9.55469C0.371096 11.7109 0.390627 13.8477 0.390627 16C0.390627 18.1523 0.371096 20.293 0.49219 22.4453C0.613283 24.9453 1.1836 27.1641 3.01172 28.9922C4.84375 30.8242 7.0586 31.3906 9.5586 31.5117C11.7148 31.6328 13.8516 31.6133 16.0039 31.6133C18.1602 31.6133 20.2969 31.6328 22.4492 31.5117C24.9492 31.3906 27.168 30.8203 28.9961 28.9922C30.8281 27.1602 31.3945 24.9453 31.5156 22.4453C31.6406 20.293 31.6172 18.1563 31.6172 16ZM16 24.0117C11.5664 24.0117 7.98828 20.4336 7.98828 16C7.98828 11.5664 11.5664 7.98828 16 7.98828C20.4336 7.98828 24.0117 11.5664 24.0117 16C24.0117 20.4336 20.4336 24.0117 16 24.0117ZM24.3398 9.53125C23.3047 9.53125 22.4688 8.69531 22.4688 7.66016C22.4688 6.625 23.3047 5.78906 24.3398 5.78906C25.375 5.78906 26.2109 6.625 26.2109 7.66016C26.2113 7.90596 26.1631 8.14941 26.0691 8.37656C25.9752 8.60371 25.8374 8.8101 25.6636 8.98391C25.4898 9.15772 25.2834 9.29553 25.0562 9.38945C24.8291 9.48337 24.5856 9.53156 24.3398 9.53125Z" fill="white"/>
</svg>
