<svg width="48" height="39" viewBox="0 0 48 39" fill="none" xmlns="http://www.w3.org/2000/svg">
<path opacity="0.4" d="M4.07221 5.58675C7.43835 1.87931 12.5319 0 19.209 0H21.6083V6.87131L19.6793 7.26375C16.3923 7.93162 14.1059 9.24544 12.8822 11.1735C12.2438 12.2122 11.8817 13.4015 11.8314 14.625H19.209C19.8454 14.625 20.4556 14.8818 20.9056 15.3389C21.3555 15.796 21.6083 16.416 21.6083 17.0625V34.125C21.6083 36.8136 19.4562 39 16.8098 39H2.41433C1.77801 39 1.16775 38.7432 0.717809 38.2861C0.267863 37.829 0.0150861 37.209 0.0150861 36.5625V24.375L0.0222838 17.2599C0.000690628 16.9894 -0.455166 10.5787 4.07221 5.58675ZM43.2015 39H28.806C28.1697 39 27.5595 38.7432 27.1095 38.2861C26.6596 37.829 26.4068 37.209 26.4068 36.5625V24.375L26.414 17.2599C26.3924 16.9894 25.9365 10.5787 30.4639 5.58675C33.8301 1.87931 38.9237 0 45.6008 0H48V6.87131L46.071 7.26375C42.784 7.93162 40.4976 9.24544 39.2739 11.1735C38.6355 12.2122 38.2734 13.4015 38.2231 14.625H45.6008C46.2371 14.625 46.8473 14.8818 47.2973 15.3389C47.7472 15.796 48 16.416 48 17.0625V34.125C48 36.8136 45.8479 39 43.2015 39Z" fill="#2F80ED"/>
</svg>
