<svg width="48" height="40" viewBox="0 0 48 40" fill="none" xmlns="http://www.w3.org/2000/svg">
<path d="M4.07221 6.52986C7.43835 2.82243 12.5319 0.943115 19.209 0.943115H21.6083V7.81443L19.6793 8.20687C16.3923 8.87474 14.1059 10.1886 12.8822 12.1166C12.2438 13.1553 11.8817 14.3446 11.8314 15.5681H19.209C19.8454 15.5681 20.4556 15.8249 20.9056 16.282C21.3555 16.7392 21.6083 17.3591 21.6083 18.0056V35.0681C21.6083 37.7567 19.4562 39.9431 16.8098 39.9431H2.41433C1.77801 39.9431 1.16775 39.6863 0.717809 39.2292C0.267863 38.7721 0.0150861 38.1521 0.0150861 37.5056V25.3181L0.0222838 18.2031C0.000690628 17.9325 -0.455166 11.5219 4.07221 6.52986ZM43.2015 39.9431H28.806C28.1697 39.9431 27.5595 39.6863 27.1095 39.2292C26.6596 38.7721 26.4068 38.1521 26.4068 37.5056V25.3181L26.414 18.2031C26.3924 17.9325 25.9365 11.5219 30.4639 6.52986C33.8301 2.82243 38.9237 0.943115 45.6008 0.943115H48V7.81443L46.071 8.20687C42.784 8.87474 40.4976 10.1886 39.2739 12.1166C38.6355 13.1553 38.2734 14.3446 38.2231 15.5681H45.6008C46.2371 15.5681 46.8473 15.8249 47.2973 16.282C47.7472 16.7392 48 17.3591 48 18.0056V35.0681C48 37.7567 45.8479 39.9431 43.2015 39.9431Z" fill="#2F80ED"/>
</svg>
